<?xml version="1.0" encoding="UTF-8"?>
<svg id="Layer_1" xmlns="http://www.w3.org/2000/svg" version="1.1" viewBox="0 0 1000 291">
  <!-- Generator: Adobe Illustrator 29.1.0, SVG Export Plug-In . SVG Version: 2.1.0 Build 142)  -->
  <defs>
    <style>
      .st0 {
        fill: #09f;
      }

      .st1 {
        fill: #fff;
      }
    </style>
  </defs>
  <path class="st0" d="M1000,284.5l-95.07-108.22,91.68-103.98h-80.64l-83.14,103.98,86.54,108.22h80.64Z"/>
  <path class="st1" d="M606.56,284.5l86.58-108.22-83.18-103.98h80.64l45.84,65.78,45.84-65.78h80.64l-83.19,103.98,86.58,108.22h-80.64l-49.23-68.75-49.23,68.75h-80.64Z"/>
  <path class="st1" d="M0,284.5V.14h234.56v59.42H69.6v50.08h134.52v59.42H69.6v115.44H0Z"/>
  <path class="st1" d="M322.23,284.5h-62.81V.14h62.81v284.36Z"/>
  <path class="st1" d="M587.96,72.29v212.21h-58.57l-4.24-26.74h-4.24c-14.43,18.67-39.9,33.1-71.73,33.1-57.3,0-95.49-33.1-95.49-102.71v-115.87h63.66v106.53c0,39.47,11.46,57.72,48.81,57.72,34.38,0,58.15-19.95,58.15-58.14v-106.11h63.66Z"/>
</svg>